<svg xmlns="http://www.w3.org/2000/svg" width="1200" height="800" viewBox="0 0 1200 800" fill="none">
  <!-- Contour lines -->
  <g stroke="#b2f2bb" stroke-width="0.8" opacity="0.25">
    <ellipse cx="750" cy="400" rx="320" ry="220"/>
    <ellipse cx="750" cy="400" rx="280" ry="190"/>
    <ellipse cx="755" cy="395" rx="230" ry="155"/>
    <ellipse cx="760" cy="390" rx="175" ry="115"/>
    <ellipse cx="765" cy="385" rx="120" ry="78"/>
    <ellipse cx="770" cy="380" rx="65" ry="42"/>
    <ellipse cx="280" cy="220" rx="200" ry="140"/>
    <ellipse cx="275" cy="215" rx="155" ry="105"/>
    <ellipse cx="270" cy="210" rx="110" ry="72"/>
    <ellipse cx="268" cy="207" rx="68" ry="44"/>
    <ellipse cx="266" cy="205" rx="30" ry="19"/>
    <ellipse cx="200" cy="650" rx="180" ry="120"/>
    <ellipse cx="205" cy="645" rx="130" ry="85"/>
    <ellipse cx="210" cy="640" rx="82" ry="52"/>
    <ellipse cx="213" cy="637" rx="38" ry="24"/>
    <ellipse cx="1050" cy="250" rx="160" ry="130"/>
    <ellipse cx="1055" cy="248" rx="115" ry="92"/>
    <ellipse cx="1060" cy="246" rx="70" ry="55"/>
    <ellipse cx="1063" cy="244" rx="30" ry="22"/>
    <ellipse cx="600" cy="720" rx="250" ry="100"/>
    <ellipse cx="605" cy="717" rx="190" ry="72"/>
    <ellipse cx="610" cy="714" rx="130" ry="48"/>
    <ellipse cx="613" cy="712" rx="70" ry="26"/>
  </g>
  <!-- Grid -->
  <g stroke="#b2f2bb" stroke-width="0.3" opacity="0.12">
    <line x1="0" y1="100" x2="1200" y2="100"/><line x1="0" y1="200" x2="1200" y2="200"/>
    <line x1="0" y1="300" x2="1200" y2="300"/><line x1="0" y1="400" x2="1200" y2="400"/>
    <line x1="0" y1="500" x2="1200" y2="500"/><line x1="0" y1="600" x2="1200" y2="600"/>
    <line x1="0" y1="700" x2="1200" y2="700"/>
    <line x1="150" y1="0" x2="150" y2="800"/><line x1="300" y1="0" x2="300" y2="800"/>
    <line x1="450" y1="0" x2="450" y2="800"/><line x1="600" y1="0" x2="600" y2="800"/>
    <line x1="750" y1="0" x2="750" y2="800"/><line x1="900" y1="0" x2="900" y2="800"/>
    <line x1="1050" y1="0" x2="1050" y2="800"/>
  </g>
  <!-- Elevation labels -->
  <g fill="#b2f2bb" font-family="monospace" font-size="9" opacity="0.18">
    <text x="770" y="378">2400m</text>
    <text x="266" y="203">1800m</text>
    <text x="213" y="635">1200m</text>
    <text x="1063" y="242">1600m</text>
    <text x="613" y="710">800m</text>
  </g>
</svg>
